<?xml version="1.0" encoding="utf-8"?>
<!-- Generator: Adobe Illustrator 21.1.0, SVG Export Plug-In . SVG Version: 6.00 Build 0)  -->
<svg version="1.1" id="Layer_1" xmlns="http://www.w3.org/2000/svg" xmlns:xlink="http://www.w3.org/1999/xlink" x="0px" y="0px"
	 viewBox="0 0 90 16" style="enable-background:new 0 0 90 16;" xml:space="preserve">
<g>
	<g>
		<polygon points="72.8,11.5 72.7,1.7 75.8,1.7 75.8,14.1 71.3,14.1 68.2,3.9 68.1,3.9 68.3,14.1 65.2,14.1 65.2,1.7 69.9,1.7 
			72.8,11.5 		"/>
		<polygon points="16.3,2.8 14.5,14.2 11.1,14.2 13.5,1.7 19.1,1.7 21.4,14.2 18,14.2 16.3,2.8 		"/>
		<polygon points="30.9,11.3 32.5,1.7 37.6,1.7 37.9,14.2 34.7,14.2 34.6,2.9 34.6,2.9 32.5,14.2 29.3,14.2 27.2,2.9 27.1,2.9 
			27,14.2 23.9,14.2 24.2,1.7 29.3,1.7 30.8,11.3 		"/>
		<path d="M5.8,10.7c0.1,0.3,0.1,0.7,0,0.9c-0.1,0.4-0.4,0.8-1.2,0.8c-0.8,0-1.3-0.5-1.3-1.1v-1.2H0l0,1c0,2.8,2.2,3.6,4.6,3.6
			c2.3,0,4.1-0.8,4.4-2.9c0.2-1.1,0-1.8,0-2.1C8.5,7.2,3.7,6.4,3.3,4.9c-0.1-0.3,0-0.5,0-0.7c0.1-0.4,0.4-0.8,1.1-0.8
			c0.7,0,1.2,0.5,1.2,1.1c0,0.2,0,0.8,0,0.8h3.1V4.4c0-2.7-2.5-3.2-4.2-3.2C2.3,1.3,0.5,2,0.1,4.1C0.1,4.6,0,5.1,0.2,5.8
			C0.7,8.3,5.2,9.1,5.8,10.7z"/>
		<path d="M46.7,10.7c0.1,0.3,0.1,0.7,0,0.9c-0.1,0.4-0.4,0.8-1.2,0.8c-0.8,0-1.3-0.5-1.3-1.1l0-1.2h-3.3l0,1c0,2.8,2.2,3.6,4.5,3.6
			c2.2,0,4.1-0.8,4.4-2.8c0.2-1.1,0-1.8,0-2c-0.5-2.6-5.3-3.4-5.6-4.8c-0.1-0.3,0-0.5,0-0.7c0.1-0.4,0.4-0.8,1.1-0.8
			c0.7,0,1.2,0.4,1.2,1.1c0,0.2,0,0.8,0,0.8h3.1V4.5c0-2.7-2.4-3.1-4.2-3.1c-2.2,0-4,0.7-4.4,2.8c-0.1,0.6-0.1,1.1,0,1.7
			C41.7,8.3,46.1,9.1,46.7,10.7z"/>
		<path d="M57.3,12.4c0.9,0,1.1-0.6,1.2-0.9c0-0.1,0-0.3,0-0.5V1.7h3.2v9c0,0.2,0,0.7,0,0.8c-0.2,2.3-2.1,3.1-4.4,3.1
			c-2.3,0-4.2-0.8-4.4-3.1c0-0.1,0-0.6,0-0.8v-9H56V11c0,0.2,0,0.3,0,0.5C56.1,11.8,56.4,12.4,57.3,12.4z"/>
		<path d="M83.5,12.2c0.9,0,1.2-0.6,1.3-0.9c0-0.1,0-0.3,0-0.5V9h-1.3V7.2H88v3.4c0,0.2,0,0.4,0,0.8c-0.2,2.3-2.2,3.1-4.4,3.1
			c-2.2,0-4.2-0.8-4.4-3.1c0-0.4,0-0.6,0-0.8l0-5.3c0-0.2,0-0.6,0.1-0.8c0.3-2.4,2.2-3.1,4.4-3.1c2.2,0,4.2,0.8,4.4,3.1
			c0,0.4,0,0.8,0,0.8v0.4h-3.2V5c0,0,0-0.3,0-0.5c-0.1-0.3-0.3-0.9-1.3-0.9c-0.9,0-1.2,0.6-1.3,0.9c0,0.2-0.1,0.4-0.1,0.6v5.8
			c0,0.2,0,0.3,0,0.5C82.3,11.7,82.6,12.2,83.5,12.2z"/>
	</g>
</g>
</svg>
